<svg width="192" height="192" viewBox="0 0 192 192" fill="none" xmlns="http://www.w3.org/2000/svg">
<path d="M146.286 111.158H164.571V141.474H192V161.684H164.571V192H146.286V161.684H118.857V141.474H146.286V111.158ZM91.4286 0C141.714 0 182.857 36.1768 182.857 80.8421C182.857 86.7032 182.126 92.3621 180.846 97.8189C172.481 93.0014 163.134 90.6468 153.707 90.9824C144.28 91.3179 135.09 94.3322 127.023 99.7347C118.956 105.137 112.284 112.745 107.651 121.826C103.018 130.907 100.58 141.154 100.571 151.579L101.303 161.179L91.4286 161.684C80.0914 161.684 69.2114 159.865 59.1543 156.632C32.4571 181.895 0 181.895 0 181.895C21.3029 158.349 24.6857 142.484 25.1429 136.421C9.6 121.971 0 102.467 0 80.8421C0 36.1768 41.1429 0 91.4286 0Z" fill="#E7CC8F"/>
</svg>
