<svg width="38" height="38" viewBox="0 0 38 38" fill="currentColor" xmlns="http://www.w3.org/2000/svg">
<path d="M3.16675 19C3.16675 22.7793 4.66808 26.4039 7.34048 29.0763C10.0129 31.7487 13.6374 33.25 17.4167 33.25C21.2009 33.25 24.8267 31.7617 27.5501 29.1333L25.1751 26.7583C24.1779 27.8135 22.9749 28.653 21.6405 29.2249C20.3061 29.7968 18.8686 30.089 17.4167 30.0833C7.53675 30.0833 2.59675 18.145 9.57925 11.1625C16.5617 4.18 28.5001 9.13583 28.5001 19H23.7501L30.0834 25.3333H30.2417L36.4167 19H31.6667C31.6667 15.2207 30.1654 11.5961 27.493 8.92373C24.8206 6.25133 21.1961 4.75 17.4167 4.75C13.6374 4.75 10.0129 6.25133 7.34048 8.92373C4.66808 11.5961 3.16675 15.2207 3.16675 19Z" fill="currentColor"/>
</svg>
