<svg width="38" height="38" viewBox="0 0 38 38" fill="currentColor" xmlns="http://www.w3.org/2000/svg">
<g clip-path="url(#clip0_1054_7942)">
<path d="M14.6153 0.27478C12.7319 0.274588 10.867 0.645378 9.12691 1.36598C7.38685 2.08657 5.80578 3.14286 4.47398 4.47453C3.14217 5.8062 2.08572 7.38716 1.36495 9.12714C0.644173 10.8671 0.273193 12.732 0.273193 14.6154C0.273001 16.4989 0.643839 18.364 1.36453 20.1041C2.08522 21.8442 3.14164 23.4254 4.47346 24.7572C5.80529 26.089 7.38642 27.1454 9.12657 27.8661C10.8667 28.5868 12.7318 28.9577 14.6153 28.9575C17.9622 28.9575 21.0358 27.7722 23.4766 25.8517L24.7554 27.1305C24.4928 27.6408 24.3998 28.2215 24.49 28.7882C24.5802 29.3549 24.8488 29.8781 25.2567 30.2816L31.971 37.0412C33.0131 38.0848 34.7187 38.0848 35.7623 37.0412L37.0411 35.7624C37.5418 35.2586 37.8228 34.5771 37.8228 33.8668C37.8228 33.1565 37.5418 32.475 37.0411 31.9712L30.2815 25.2569C29.8751 24.8516 29.3488 24.5884 28.7808 24.5062C28.2128 24.4241 27.6335 24.5274 27.129 24.8009L25.8501 23.522C27.5241 21.4096 28.5689 18.8682 28.8647 16.1892C29.1604 13.5102 28.6953 10.8021 27.5225 8.3754C26.3497 5.94867 24.5168 3.90157 22.2339 2.46881C19.951 1.03605 17.3105 0.275647 14.6153 0.27478ZM14.6153 2.92309C17.7163 2.92309 20.6902 4.15495 22.883 6.34769C25.0757 8.54042 26.3076 11.5144 26.3076 14.6154C26.3076 17.7164 25.0757 20.6904 22.883 22.8831C20.6902 25.0758 17.7163 26.3077 14.6153 26.3077C11.5143 26.3077 8.54029 25.0758 6.34756 22.8831C4.15483 20.6904 2.92296 17.7164 2.92296 14.6154C2.92296 11.5144 4.15483 8.54042 6.34756 6.34769C8.54029 4.15495 11.5143 2.92309 14.6153 2.92309ZM7.2155 10.9162C6.43597 12.1789 6.02491 13.6343 6.02873 15.1182C6.027 16.1683 6.23257 17.2085 6.63365 18.1791C7.03473 19.1496 7.62343 20.0315 8.36601 20.774C9.10859 21.5166 9.99043 22.1053 10.961 22.5064C11.9315 22.9075 12.9717 23.1131 14.0219 23.1113C15.6728 23.1079 17.2829 22.5978 18.6345 21.6498C18.2701 21.6835 17.9042 21.6982 17.5383 21.6936C16.1819 21.6971 14.8381 21.4325 13.5842 20.9151C12.3303 20.3976 11.191 19.6375 10.2318 18.6784C9.27254 17.7193 8.51226 16.5801 7.99463 15.3263C7.47701 14.0725 7.21222 12.7287 7.2155 11.3722C7.2155 11.2202 7.20819 11.0682 7.2155 10.9162Z" fill="currentColor"/>
</g>
<defs>
<clipPath id="clip0_1054_7942">
<rect width="38" height="38" fill="white"/>
</clipPath>
</defs>
</svg>
