<svg width="38" height="38" viewBox="0 0 38 38" fill="currentColor" xmlns="http://www.w3.org/2000/svg">
<path d="M4.41748 7.06167L5.54165 5.9375L32.0625 32.4583L30.9383 33.5825L22.6891 25.3333H19V32.4583L18.2083 34.8333L17.4166 32.4583V25.3333H9.49998V22.1667L12.6666 19V15.295L4.41748 7.06167ZM22.1666 19.6492V7.91667H23.75V6.33333H12.6666V7.91667H14.25V12.4133L12.6666 10.83V9.5H11.3366L11.0833 9.24667V4.75H25.3333V9.5H23.75V19L26.9166 22.1667V25.0642L25.3333 23.4967V22.8158L22.1666 19.6492ZM14.25 19.6492L11.0833 22.8158V23.75H21.1216L14.25 16.8783V19.6492Z" stroke-linecap="round" stroke-linejoin="round"/>
</svg>
