<svg width="38" height="38" viewBox="0 0 38 38" fill="transparent" stroke="currentColor" xmlns="http://www.w3.org/2000/svg">
<path d="M6.33325 8.14285H31.6666M15.3809 13.5714V28.0476M22.619 13.5714V28.0476M9.9523 8.14285H28.0475V29.8571C28.0475 30.817 27.6662 31.7375 26.9875 32.4162C26.3088 33.0949 25.3883 33.4762 24.4285 33.4762H13.5713C12.6115 33.4762 11.691 33.0949 11.0123 32.4162C10.3336 31.7375 9.9523 30.817 9.9523 29.8571V8.14285ZM18.9999 4.5238C19.913 4.52351 20.7924 4.86835 21.4619 5.48918C22.1314 6.11001 22.5414 6.96095 22.6099 7.87142L22.619 8.14285H15.3809C15.3809 7.18302 15.7622 6.2625 16.4409 5.5838C17.1196 4.9051 18.0401 4.5238 18.9999 4.5238Z" stroke-width="1.80952" stroke-linecap="round" stroke-linejoin="round"/>
</svg>
