<svg width="38" height="38" viewBox="0 0 38 38" fill="currentColor" stroke="currentColor" xmlns="http://www.w3.org/2000/svg">
<path d="M15.8333 8.31252V8.70835H22.1666V8.31252C22.1666 7.47267 21.833 6.66721 21.2391 6.07335C20.6452 5.47948 19.8398 5.14585 18.9999 5.14585C18.1601 5.14585 17.3546 5.47948 16.7607 6.07335C16.1669 6.66721 15.8333 7.47267 15.8333 8.31252ZM13.8541 8.70835V8.31252C13.8541 6.94776 14.3962 5.6389 15.3613 4.67387C16.3263 3.70884 17.6352 3.16669 18.9999 3.16669C20.3647 3.16669 21.6735 3.70884 22.6386 4.67387C23.6036 5.6389 24.1458 6.94776 24.1458 8.31252V8.70835H33.052C33.3145 8.70835 33.5662 8.81261 33.7517 8.9982C33.9373 9.18378 34.0416 9.43548 34.0416 9.69794C34.0416 9.96039 33.9373 10.2121 33.7517 10.3977C33.5662 10.5833 33.3145 10.6875 33.052 10.6875H30.7427L29.1594 29.5735C29.0391 31.0077 28.3843 32.3444 27.325 33.3186C26.2656 34.2928 24.8788 34.8334 23.4396 34.8334H14.5603C13.1212 34.8332 11.7346 34.2925 10.6754 33.3183C9.61616 32.3441 8.96154 31.0076 8.84125 29.5735L7.25792 10.6875H4.94784C4.68538 10.6875 4.43368 10.5833 4.24809 10.3977C4.06251 10.2121 3.95825 9.96039 3.95825 9.69794C3.95825 9.43548 4.06251 9.18378 4.24809 8.9982C4.43368 8.81261 4.68538 8.70835 4.94784 8.70835H13.8541ZM10.8133 29.4081C10.8921 30.3476 11.321 31.2233 12.015 31.8616C12.709 32.4998 13.6174 32.8541 14.5603 32.8542H23.4396C24.3826 32.8543 25.2912 32.5001 25.9854 31.8618C26.6795 31.2236 27.1085 30.3478 27.1873 29.4081L28.7564 10.6875H9.24342L10.8133 29.4081ZM17.0208 16.0313C17.0208 15.9013 16.9952 15.7726 16.9454 15.6526C16.8957 15.5325 16.8228 15.4234 16.7309 15.3315C16.639 15.2396 16.5299 15.1667 16.4099 15.117C16.2898 15.0673 16.1611 15.0417 16.0312 15.0417C15.9012 15.0417 15.7725 15.0673 15.6525 15.117C15.5324 15.1667 15.4233 15.2396 15.3314 15.3315C15.2395 15.4234 15.1666 15.5325 15.1169 15.6526C15.0672 15.7726 15.0416 15.9013 15.0416 16.0313V27.5104C15.0416 27.6404 15.0672 27.7691 15.1169 27.8891C15.1666 28.0092 15.2395 28.1183 15.3314 28.2102C15.4233 28.3021 15.5324 28.375 15.6525 28.4247C15.7725 28.4744 15.9012 28.5 16.0312 28.5C16.1611 28.5 16.2898 28.4744 16.4099 28.4247C16.5299 28.375 16.639 28.3021 16.7309 28.2102C16.8228 28.1183 16.8957 28.0092 16.9454 27.8891C16.9952 27.7691 17.0208 27.6404 17.0208 27.5104V16.0313ZM21.9687 15.0417C22.5149 15.0417 22.9583 15.485 22.9583 16.0313V27.5104C22.9583 27.7729 22.854 28.0246 22.6684 28.2102C22.4828 28.3958 22.2311 28.5 21.9687 28.5C21.7062 28.5 21.4545 28.3958 21.2689 28.2102C21.0833 28.0246 20.9791 27.7729 20.9791 27.5104V16.0313C20.9791 15.485 21.4224 15.0417 21.9687 15.0417Z" stroke-width="0.5"/>
</svg>
