<svg width="38" height="38" viewBox="0 0 38 38" fill="currentColor" stroke="white" xmlns="http://www.w3.org/2000/svg">
<path d="M26.6001 13.3C27.104 13.3 27.5873 13.0998 27.9436 12.7435C28.2999 12.3872 28.5001 11.9039 28.5001 11.4C28.5001 10.8961 28.2999 10.4128 27.9436 10.0565C27.5873 9.70019 27.104 9.50001 26.6001 9.50001C26.0962 9.50001 25.6129 9.70019 25.2566 10.0565C24.9003 10.4128 24.7001 10.8961 24.7001 11.4C24.7001 11.9039 24.9003 12.3872 25.2566 12.7435C25.6129 13.0998 26.0962 13.3 26.6001 13.3ZM21.1471 3.80001C20.6445 3.79661 20.1463 3.89293 19.6812 4.0834C19.2162 4.27386 18.7935 4.55469 18.4377 4.90961L5.74188 17.5731C5.38832 17.9258 5.10774 18.3447 4.91618 18.8059C4.72462 19.267 4.62584 19.7614 4.62549 20.2608C4.62514 20.7602 4.72322 21.2548 4.91412 21.7162C5.10503 22.1777 5.38502 22.5969 5.73808 22.9501L15.1412 32.3513C15.8538 33.0637 16.8202 33.4639 17.8278 33.4639C18.8354 33.4639 19.8018 33.0637 20.5144 32.3513L33.1133 19.7543C33.4671 19.4006 33.7475 18.9806 33.9386 18.5182C34.1297 18.0559 34.2276 17.5604 34.2267 17.0601L34.2115 7.65511C34.21 6.65287 33.8126 5.69179 33.1059 4.98115C32.3992 4.2705 31.4403 3.86783 30.4381 3.86081L21.1471 3.80001ZM19.7791 6.25481C19.957 6.07735 20.1683 5.93694 20.4009 5.84171C20.6334 5.74647 20.8825 5.69831 21.1338 5.70001L30.4248 5.76081C30.9261 5.76432 31.4056 5.96579 31.759 6.32132C32.1124 6.67685 32.311 7.15763 32.3115 7.65891L32.3267 17.0639C32.3269 17.3137 32.2778 17.5611 32.1823 17.7919C32.0868 18.0228 31.9466 18.2325 31.77 18.4091L19.173 31.008C18.9965 31.1847 18.787 31.3248 18.5563 31.4204C18.3257 31.516 18.0784 31.5653 17.8287 31.5653C17.579 31.5653 17.3318 31.516 17.1011 31.4204C16.8705 31.3248 16.6609 31.1847 16.4845 31.008L7.08138 21.6068C6.90485 21.4302 6.76485 21.2206 6.6694 20.9899C6.57395 20.7591 6.52491 20.5119 6.52508 20.2622C6.52526 20.0125 6.57465 19.7653 6.67043 19.5347C6.76621 19.3041 6.9065 19.0946 7.08328 18.9183L19.7791 6.25481Z" stroke-width=".3"/>
</svg>
