<svg width="38" height="38" viewBox="0 0 38 38" fill="currentColor" xmlns="http://www.w3.org/2000/svg">
<path fill-rule="evenodd" clip-rule="evenodd" d="M19.0551 4.28343C19.5202 4.093 20.0184 3.99669 20.5209 4.00009L29.8115 4.06088C30.8137 4.06789 31.7726 4.47051 32.4793 5.18106C33.186 5.89161 33.5833 6.85256 33.5848 7.85467L33.6 17.2584C33.6009 17.7586 33.503 18.2541 33.3119 18.7163C33.1209 19.1786 32.8404 19.5986 32.4866 19.9522L19.8882 32.5476C19.1757 33.2599 18.2093 33.66 17.2018 33.66C16.1942 33.66 15.2278 33.2599 14.5153 32.5476L5.11255 23.1476C4.7595 22.7945 4.47952 22.3753 4.28862 21.9139C4.09772 21.4525 3.99965 20.958 4 20.4587C4.00035 19.9594 4.09913 19.465 4.29068 19.0039C4.48223 18.5428 4.7628 18.124 5.11635 17.7713L17.8116 5.10954C18.1674 4.75466 18.5901 4.47387 19.0551 4.28343ZM25.9739 13.4988C26.4778 13.4988 26.961 13.2987 27.3173 12.9424C27.6736 12.5861 27.8738 12.1029 27.8738 11.5991C27.8738 11.0952 27.6736 10.612 27.3173 10.2557C26.961 9.89946 26.4778 9.69931 25.9739 9.69931C25.47 9.69931 24.9868 9.89946 24.6304 10.2557C24.2741 10.612 24.074 11.0952 24.074 11.5991C24.074 12.1029 24.2741 12.5861 24.6304 12.9424C24.9868 13.2987 25.47 13.4988 25.9739 13.4988Z" />
</svg>
