<svg width="38" height="38" viewBox="0 0 38 38" fill="none" xmlns="http://www.w3.org/2000/svg">
<path d="M27.7797 26.8012C27.8477 26.8646 27.9022 26.941 27.9401 27.0259C27.9779 27.1108 27.9983 27.2025 27.9999 27.2955C28.0015 27.3884 27.9844 27.4808 27.9496 27.567C27.9148 27.6532 27.863 27.7315 27.7972 27.7972C27.7315 27.863 27.6532 27.9148 27.567 27.9496C27.4808 27.9844 27.3884 28.0015 27.2955 27.9999C27.2025 27.9983 27.1108 27.9779 27.0259 27.9401C26.941 27.9022 26.8646 27.8477 26.8012 27.7797L18.9827 19.9623L11.1643 27.7797C11.033 27.9019 10.8594 27.9685 10.6801 27.9654C10.5007 27.9622 10.3296 27.8895 10.2028 27.7627C10.0759 27.6358 10.0033 27.4647 10.0001 27.2854C9.99694 27.106 10.0635 26.9324 10.1858 26.8012L18.0031 18.9827L10.1858 11.1643C10.0635 11.033 9.99694 10.8594 10.0001 10.6801C10.0033 10.5007 10.0759 10.3296 10.2028 10.2028C10.3296 10.0759 10.5007 10.0033 10.6801 10.0001C10.8594 9.99694 11.033 10.0635 11.1643 10.1858L18.9827 18.0031L26.8012 10.1858C26.9324 10.0635 27.106 9.99694 27.2854 10.0001C27.4647 10.0033 27.6358 10.0759 27.7627 10.2028C27.8895 10.3296 27.9622 10.5007 27.9654 10.6801C27.9685 10.8594 27.9019 11.033 27.7797 11.1643L19.9623 18.9827L27.7797 26.8012Z" fill="currentColor" stroke-width="1.5"/>
</svg>
