<svg width="38" height="38" viewBox="0 0 38 38" fill="currentColor" xmlns="http://www.w3.org/2000/svg">
<path opacity="0.2" d="M2.72234 22.7109L15.2891 35.2777C15.5117 35.5002 15.8137 35.6252 16.1285 35.6252C16.4433 35.6252 16.7452 35.5002 16.9679 35.2777L31.7152 20.5348C31.9374 20.3123 32.0624 20.0107 32.0625 19.6962V5.9375H18.3038C17.9893 5.93765 17.6877 6.06256 17.4652 6.28484L2.72234 21.0277C2.61149 21.138 2.52352 21.2691 2.4635 21.4136C2.40348 21.558 2.37258 21.7129 2.37258 21.8693C2.37258 22.0257 2.40348 22.1806 2.4635 22.325C2.52352 22.4694 2.61149 22.6006 2.72234 22.7109Z" fill="#CCCCCC"/>
<path d="M1.88366 20.1875L16.625 5.44618C16.8447 5.22468 17.1063 5.04907 17.3945 4.92956C17.6827 4.81005 17.9918 4.74902 18.3038 4.75001H32.0625C32.3774 4.75001 32.6795 4.87512 32.9022 5.09782C33.1249 5.32052 33.25 5.62257 33.25 5.93751V19.6962C33.251 20.0082 33.19 20.3173 33.0704 20.6055C32.9509 20.8937 32.7753 21.1553 32.5538 21.375L17.8125 36.1163C17.5919 36.3369 17.3301 36.5119 17.0419 36.6313C16.7537 36.7507 16.4449 36.8122 16.1329 36.8122C15.821 36.8122 15.5121 36.7507 15.2239 36.6313C14.9357 36.5119 14.6739 36.3369 14.4533 36.1163L1.88366 23.5467C1.66306 23.3261 1.48807 23.0643 1.36868 22.7761C1.2493 22.4879 1.18785 22.179 1.18785 21.8671C1.18785 21.5551 1.2493 21.2463 1.36868 20.9581C1.48807 20.6699 1.66306 20.4081 1.88366 20.1875ZM16.1337 34.4375L30.875 19.6962V7.12501H18.3038L3.56249 21.8663L16.1337 34.4375ZM23.75 12.4688C23.75 12.8211 23.8545 13.1654 24.0502 13.4584C24.2459 13.7513 24.5241 13.9796 24.8496 14.1144C25.1751 14.2492 25.5332 14.2845 25.8787 14.2158C26.2243 14.1471 26.5417 13.9774 26.7908 13.7283C27.0399 13.4792 27.2095 13.1618 27.2783 12.8163C27.347 12.4707 27.3117 12.1126 27.1769 11.7871C27.0421 11.4616 26.8138 11.1834 26.5208 10.9877C26.2279 10.792 25.8835 10.6875 25.5312 10.6875C25.0588 10.6875 24.6058 10.8752 24.2717 11.2092C23.9377 11.5433 23.75 11.9963 23.75 12.4688Z" fill="#CCCCCC"/>
</svg>
