<svg width="78" height="68" viewBox="0 0 78 68" fill="none" xmlns="http://www.w3.org/2000/svg">
<path d="M44.5714 0C35.7056 0 27.2029 3.57297 20.9339 9.9329C14.6648 16.2928 11.1429 24.9187 11.1429 33.913H0L14.4486 48.571L14.7086 49.0985L29.7143 33.913H18.5714C18.5714 19.3304 30.1971 7.53623 44.5714 7.53623C58.9457 7.53623 70.5714 19.3304 70.5714 33.913C70.5714 48.4956 58.9457 60.2898 44.5714 60.2898C37.4029 60.2898 30.9029 57.313 26.2229 52.5275L20.9486 57.8782C24.0441 61.036 27.7252 63.5407 31.7797 65.2481C35.8341 66.9555 40.1816 67.8316 44.5714 67.8261C53.4372 67.8261 61.9399 64.2531 68.209 57.8932C74.4781 51.5332 78 42.9073 78 33.913C78 24.9187 74.4781 16.2928 68.209 9.9329C61.9399 3.57297 53.4372 1.34025e-07 44.5714 0ZM40.8571 18.8406V37.6811L56.6429 47.1768L59.5029 42.3536L46.4286 34.4782V18.8406H40.8571Z" fill="#E7CC8F"/>
</svg>
