<svg width="33" height="32" viewBox="0 0 33 32" fill="none" xmlns="http://www.w3.org/2000/svg">
<path d="M1.33323 16.805L7.08656 19.3233L23.6666 10.2783L13.6666 21.945L27.9999 28.4717C28.245 28.579 28.5124 28.6258 28.7794 28.608C29.0464 28.5902 29.3052 28.5083 29.5339 28.3694C29.7626 28.2304 29.9545 28.0384 30.0934 27.8097C30.2322 27.5809 30.3139 27.322 30.3316 27.055L31.9982 2.055C32.0168 1.76564 31.9597 1.47643 31.8326 1.21584C31.7054 0.955242 31.5126 0.732237 31.2731 0.568769C31.0337 0.405301 30.7557 0.307004 30.4667 0.283549C30.1777 0.260095 29.8876 0.312292 29.6249 0.435003L1.29156 13.7683C1.00254 13.9055 0.758988 14.1227 0.589866 14.3942C0.420745 14.6658 0.333171 14.9802 0.33756 15.3C0.341949 15.6199 0.438115 15.9318 0.614624 16.1986C0.791132 16.4654 1.04055 16.6759 1.33323 16.805ZM10.3332 31.945L18.2932 28.085L10.3332 24.3717V31.945Z" fill="currentColor"/>
</svg>
