<svg width="78" height="78" viewBox="0 0 78 78" fill="none" xmlns="http://www.w3.org/2000/svg">
<path d="M39 0C31.2865 0 23.7463 2.28731 17.3328 6.57268C10.9193 10.8581 5.92053 16.949 2.96872 24.0753C0.0168981 31.2017 -0.755432 39.0433 0.749391 46.6085C2.25421 54.1738 5.9686 61.1229 11.4229 66.5771C16.8771 72.0314 23.8262 75.7458 31.3915 77.2506C38.9567 78.7554 46.7983 77.9831 53.9247 75.0313C61.051 72.0795 67.1419 67.0807 71.4273 60.6672C75.7127 54.2537 78 46.7135 78 39C77.9891 28.6599 73.8767 18.7464 66.5651 11.4349C59.2536 4.12334 49.3401 0.0109193 39 0ZM18.78 65.0625C20.9503 61.6683 23.94 58.875 27.4737 56.9402C31.0074 55.0054 34.9713 53.9912 39 53.9912C43.0287 53.9912 46.9926 55.0054 50.5263 56.9402C54.06 58.875 57.0497 61.6683 59.22 65.0625C53.4388 69.5587 46.3238 71.9997 39 71.9997C31.6762 71.9997 24.5613 69.5587 18.78 65.0625ZM27 36C27 33.6266 27.7038 31.3065 29.0224 29.3332C30.341 27.3598 32.2151 25.8217 34.4078 24.9134C36.6005 24.0052 39.0133 23.7675 41.3411 24.2306C43.6689 24.6936 45.8071 25.8365 47.4853 27.5147C49.1635 29.1929 50.3064 31.3311 50.7694 33.6589C51.2325 35.9867 50.9948 38.3995 50.0866 40.5922C49.1783 42.7849 47.6402 44.659 45.6668 45.9776C43.6935 47.2962 41.3734 48 39 48C35.8174 48 32.7652 46.7357 30.5147 44.4853C28.2643 42.2348 27 39.1826 27 36ZM63.66 60.9037C60.3141 56.0553 55.6094 52.3043 50.1375 50.1225C53.0768 47.8074 55.2216 44.6339 56.2737 41.0433C57.3258 37.4528 57.2329 33.6236 56.0078 30.0883C54.7827 26.553 52.4864 23.4873 49.4383 21.3176C46.3901 19.1479 42.7415 17.9819 39 17.9819C35.2585 17.9819 31.6099 19.1479 28.5617 21.3176C25.5136 23.4873 23.2173 26.553 21.9922 30.0883C20.7671 33.6236 20.6742 37.4528 21.7263 41.0433C22.7784 44.6339 24.9232 47.8074 27.8625 50.1225C22.3906 52.3043 17.6859 56.0553 14.34 60.9037C10.1121 56.1494 7.34878 50.2742 6.38268 43.9856C5.41659 37.6971 6.28894 31.2633 8.8947 25.4591C11.5005 19.6549 15.7285 14.7277 21.0698 11.2708C26.411 7.81386 32.6377 5.97467 39 5.97467C45.3623 5.97467 51.589 7.81386 56.9302 11.2708C62.2715 14.7277 66.4995 19.6549 69.1053 25.4591C71.7111 31.2633 72.5834 37.6971 71.6173 43.9856C70.6512 50.2742 67.8879 56.1494 63.66 60.9037Z" fill="#E7CC8F"/>
</svg>
